<?xml version="1.0" standalone="no"?>
<!DOCTYPE svg PUBLIC "-//W3C//DTD SVG 20010904//EN"
 "http://www.w3.org/TR/2001/REC-SVG-20010904/DTD/svg10.dtd">
<svg version="1.0" xmlns="http://www.w3.org/2000/svg"
 width="1220.000000pt" height="1220.000000pt" viewBox="0 0 1220.000000 1220.000000"
 preserveAspectRatio="xMidYMid meet">
<metadata>
Created by potrace 1.11, written by Peter Selinger 2001-2013
</metadata>
<g transform="translate(0.000000,1220.000000) scale(0.100000,-0.100000)"
fill="#000000" stroke="none">
<path d="M5735 11169 c-399 -32 -835 -126 -1193 -255 -506 -183 -954 -439
-1387 -791 -155 -126 -472 -443 -603 -603 -581 -709 -928 -1519 -1039 -2430
-25 -205 -25 -810 0 -1020 49 -408 136 -776 276 -1160 602 -1648 1976 -2919
4114 -3806 99 -41 183 -74 188 -74 5 0 10 200 11 463 l3 462 175 7 c674 26
1296 186 1895 487 1183 596 2056 1674 2389 2951 175 669 194 1413 56 2102
-168 836 -594 1644 -1194 2266 -795 824 -1831 1311 -2980 1402 -148 11 -563
11 -711 -1z m-2501 -1919 c148 -89 225 -149 365 -285 162 -157 278 -297 443
-535 10 -14 -8 31 -39 100 -124 277 -331 765 -326 770 16 16 167 -207 252
-373 111 -216 211 -511 227 -666 l7 -64 -80 89 c-97 107 -432 438 -523 515
-80 69 -262 204 -302 225 -28 15 -29 14 -24 -3 3 -10 21 -90 40 -178 42 -193
73 -409 81 -564 7 -134 18 -165 90 -236 82 -82 220 -140 441 -183 107 -21 112
-30 63 -122 -65 -122 -221 -238 -416 -309 l-74 -27 41 -62 c23 -34 65 -82 93
-108 59 -51 202 -124 292 -147 168 -44 410 -47 565 -8 84 22 270 104 270 119
0 5 -15 26 -33 48 -216 255 -385 658 -492 1174 -38 184 -116 635 -122 706 -5
53 -2 65 16 83 32 32 79 27 168 -20 260 -137 547 -409 783 -741 18 -27 35 -48
36 -48 4 0 -15 43 -78 185 -106 234 -270 626 -265 631 7 7 77 -81 140 -176 62
-95 195 -365 242 -493 62 -169 121 -427 98 -427 -5 0 -17 17 -26 38 -42 95
-463 529 -654 675 -114 87 -263 182 -263 168 0 -36 129 -631 169 -781 68 -252
109 -368 197 -550 72 -149 195 -350 214 -350 6 0 24 19 41 43 80 110 144 287
157 435 15 176 55 58 49 -143 -3 -77 -11 -154 -21 -188 -18 -64 -72 -183 -106
-234 l-21 -32 58 -46 c121 -96 289 -156 435 -154 66 0 195 20 216 33 19 11 15
29 -34 154 -72 183 -173 373 -289 542 l-105 155 127 7 c318 17 534 43 721 86
l81 19 41 -171 c23 -94 62 -259 87 -366 24 -107 47 -197 49 -199 2 -3 30 -4
62 -3 l57 1 -54 -25 c-48 -22 -53 -27 -49 -52 3 -15 33 -164 68 -332 l63 -305
60 -35 c123 -71 324 -293 315 -348 -3 -15 12 -18 127 -25 132 -7 163 -17 132
-39 -15 -12 -5 -33 99 -218 64 -113 172 -310 241 -439 69 -128 138 -256 155
-284 16 -28 50 -90 74 -139 l44 -88 -27 -11 c-145 -55 -349 -85 -508 -75 -56
3 -112 8 -125 11 -14 3 -38 7 -55 10 -72 14 -196 58 -192 69 2 6 32 15 68 20
35 5 65 10 67 11 2 2 -10 25 -27 51 -82 134 -95 173 -238 714 l-57 215 -128 1
c-78 0 -132 4 -139 11 -27 27 65 128 149 165 34 15 71 21 132 23 47 1 110 3
140 4 l55 1 -100 44 c-130 56 -336 160 -402 202 -60 38 -128 74 -141 74 -5 0
-19 -48 -32 -107 -12 -60 -36 -141 -52 -181 l-30 -73 76 -217 c121 -346 190
-618 236 -920 31 -209 35 -262 18 -262 -13 0 -104 176 -167 324 -17 40 -24 47
-38 40 -10 -5 -56 -9 -103 -9 -71 0 -94 5 -144 28 -32 15 -59 27 -60 27 -1 0
4 -37 10 -82 16 -100 17 -185 5 -193 -18 -10 -116 156 -168 283 l-22 52 -48
-19 c-90 -35 -303 -111 -312 -111 -15 0 -112 460 -191 904 -23 126 -20 173 6
123 18 -33 189 -463 259 -649 l47 -127 99 2 c74 1 99 5 99 15 0 8 -38 167 -85
355 -92 376 -101 417 -89 417 5 0 17 -19 27 -43 10 -23 57 -136 104 -250 l87
-208 22 83 c29 115 69 209 108 254 31 37 33 44 40 146 6 105 6 109 -45 315
-29 114 -56 213 -61 220 -10 13 -93 29 -227 42 -51 6 -96 13 -99 16 -19 19 73
34 230 37 77 2 77 2 72 28 -18 77 -53 212 -56 216 -2 2 -29 -6 -59 -17 -135
-52 -328 -64 -465 -29 -96 25 -220 83 -294 139 -30 22 -58 41 -62 41 -4 0 -29
-16 -55 -36 -25 -19 -74 -49 -107 -66 -34 -17 -63 -32 -64 -34 -2 -1 37 -85
87 -186 49 -101 110 -231 134 -290 l43 -107 45 30 c70 48 154 88 197 95 75 12
102 -47 62 -134 -25 -55 -43 -47 -34 14 10 67 -13 58 -122 -48 l-95 -93 51
-150 c144 -424 248 -867 279 -1185 9 -93 6 -120 -9 -103 -4 4 -101 298 -215
653 -114 355 -209 647 -211 649 -6 6 -64 -51 -64 -62 0 -6 11 -25 25 -43 28
-37 84 -145 114 -220 53 -135 66 -323 31 -457 -37 -145 -130 -294 -243 -391
-94 -80 -305 -172 -447 -195 -305 -50 -562 93 -709 394 -58 119 -75 185 -76
295 0 173 55 286 170 345 57 29 63 30 189 29 151 -1 229 -20 421 -103 109 -46
320 -159 313 -167 -2 -2 -44 14 -94 35 -292 126 -563 183 -703 147 -82 -21
-118 -48 -147 -110 -33 -70 -34 -199 -3 -283 53 -142 186 -311 287 -362 153
-78 333 -63 546 47 279 143 381 452 247 747 -23 49 -107 186 -115 185 -1 0
-23 -7 -50 -15 -64 -19 -73 -10 -50 50 10 27 14 50 8 53 -32 24 -109 72 -115
72 -3 0 -9 -35 -12 -77 -5 -77 -30 -168 -48 -179 -5 -3 -9 20 -9 52 0 32 -5
97 -11 145 -11 85 -12 87 -40 91 -16 3 -29 2 -29 0 0 -3 14 -27 31 -54 43 -70
31 -69 -20 1 -41 57 -45 59 -80 54 -148 -20 -280 -98 -468 -273 -205 -193
-335 -229 -426 -121 -47 56 -49 85 -48 540 2 386 4 429 21 478 33 94 88 151
167 172 53 14 115 1 198 -42 89 -46 275 -238 400 -411 l99 -138 60 6 c33 3 61
8 63 10 6 6 -104 318 -151 426 l-44 104 -99 22 c-252 56 -452 192 -545 369
-40 77 -113 264 -105 271 3 3 42 9 88 14 232 24 433 104 544 215 l60 59 -150
7 c-234 10 -385 61 -491 167 -76 76 -103 139 -120 272 -27 218 -55 356 -145
714 -65 253 -68 287 -27 328 34 34 92 20 212 -52z m2599 -362 c18 -46 49 -123
67 -173 18 -49 49 -128 68 -175 44 -108 53 -219 27 -315 -9 -35 -23 -66 -30
-69 -20 -7 -91 77 -126 151 -33 69 -34 79 -59 468 -12 196 -12 195 4 195 8 0
29 -35 49 -82z m243 -55 c9 -21 56 -144 105 -273 85 -225 89 -237 89 -315 0
-81 -21 -178 -41 -191 -17 -10 -85 63 -118 130 -36 70 -46 126 -61 346 -13
196 -13 340 0 340 5 0 17 -17 26 -37z m1304 -1795 c12 -29 58 -147 102 -263
64 -167 81 -224 85 -280 6 -80 -10 -174 -36 -206 l-17 -21 -43 47 c-23 25 -56
76 -73 111 -33 70 -30 47 -58 449 -13 190 -13 215 4 215 7 0 23 -24 36 -52z
m757 -773 c80 -40 196 -149 299 -281 68 -87 81 -94 141 -78 l22 6 -29 77 c-27
73 -38 100 -94 224 -34 76 -17 74 60 -8 63 -67 122 -166 153 -257 16 -49 19
-51 78 -73 92 -33 151 -72 229 -149 104 -105 163 -222 184 -363 29 -207 -98
-427 -301 -522 -354 -166 -654 -81 -803 229 -36 74 -41 96 -44 165 -4 75 2
105 33 179 7 17 6 17 -15 6 -13 -7 -45 -12 -73 -12 -57 0 -91 20 -122 73 -19
32 -20 51 -19 339 0 334 4 356 57 417 64 73 138 81 244 28z m-1789 -287 c211
-441 334 -713 363 -802 54 -163 89 -436 55 -436 -15 0 -74 73 -132 165 -68
108 -132 259 -174 410 -23 82 -57 200 -76 264 -66 218 -174 623 -168 632 3 5
9 7 13 5 4 -3 58 -110 119 -238z m-2898 -1663 c0 -87 -3 -105 -15 -105 -12 0
-15 18 -15 105 0 87 3 105 15 105 12 0 15 -18 15 -105z m170 95 c0 -5 -13 -10
-30 -10 l-30 0 0 -95 c0 -78 -3 -95 -15 -95 -12 0 -15 17 -15 95 l0 95 -30 0
c-16 0 -30 5 -30 10 0 6 32 10 75 10 43 0 75 -4 75 -10z m70 5 c0 -15 -31 -77
-36 -73 -11 11 8 78 22 78 8 0 14 -2 14 -5z m88 -52 c11 -32 23 -69 28 -83 8
-29 7 -31 45 78 16 46 26 62 40 62 14 0 19 -7 19 -28 0 -16 3 -63 6 -105 6
-67 5 -77 -10 -77 -13 0 -16 12 -16 75 0 41 -4 75 -8 75 -5 0 -19 -34 -32 -75
-13 -41 -29 -75 -36 -75 -7 0 -22 30 -34 68 -32 96 -40 98 -40 9 0 -65 -3 -77
-16 -77 -15 0 -16 9 -11 68 4 37 7 84 7 105 0 29 4 37 19 37 13 0 24 -15 39
-57z m302 47 c0 -5 -20 -10 -45 -10 -45 0 -45 0 -45 -35 0 -34 1 -35 40 -35
22 0 40 -4 40 -10 0 -5 -18 -10 -40 -10 l-40 0 0 -40 0 -40 45 0 c25 0 45 -4
45 -10 0 -6 -27 -10 -60 -10 l-60 0 0 105 0 105 60 0 c33 0 60 -4 60 -10z
m220 0 c0 -5 -20 -10 -45 -10 -45 0 -45 0 -45 -35 0 -34 1 -35 40 -35 22 0 40
-4 40 -10 0 -5 -18 -10 -40 -10 l-40 0 0 -40 0 -40 45 0 c25 0 45 -4 45 -10 0
-6 -27 -10 -60 -10 l-60 0 0 105 0 105 60 0 c33 0 60 -4 60 -10z m138 -6 c26
-18 29 -56 7 -78 -11 -11 -13 -20 -6 -33 5 -10 14 -33 20 -51 9 -29 8 -33 -6
-30 -9 2 -20 16 -24 31 -10 37 -27 57 -50 57 -16 0 -19 -8 -19 -45 0 -33 -4
-45 -15 -45 -12 0 -15 18 -15 105 l0 105 43 0 c23 0 53 -7 65 -16z m198 1 c31
-21 47 -68 39 -111 -15 -84 -99 -112 -157 -54 -28 28 -30 35 -26 82 4 40 12
57 32 75 31 26 81 30 112 8z m194 5 c0 -5 -13 -10 -30 -10 l-30 0 0 -95 c0
-78 -3 -95 -15 -95 -12 0 -15 17 -15 95 l0 95 -30 0 c-16 0 -30 5 -30 10 0 6
32 10 75 10 43 0 75 -4 75 -10z m50 -95 c0 -87 -3 -105 -15 -105 -12 0 -15 18
-15 105 0 87 3 105 15 105 12 0 15 -18 15 -105z m80 0 c0 -87 -3 -105 -15
-105 -12 0 -15 18 -15 105 0 87 3 105 15 105 12 0 15 -18 15 -105z m180 90
c-3 -5 -15 -9 -27 -7 -41 5 -81 -24 -89 -64 -12 -67 33 -113 99 -98 22 5 28 3
25 -7 -5 -16 -58 -24 -95 -14 -27 6 -63 59 -63 93 0 35 28 88 53 100 27 14
104 11 97 -3z m65 -12 c-3 -16 -13 -35 -21 -43 -14 -13 -15 -12 -9 15 11 48
14 55 26 55 7 0 9 -10 4 -27z m143 9 c3 -9 -3 -11 -22 -6 -28 7 -56 -9 -56
-32 0 -7 17 -22 39 -33 57 -30 69 -78 27 -106 -28 -19 -87 -16 -94 4 -3 10 3
11 27 6 68 -15 84 43 21 75 -51 26 -64 65 -30 92 26 21 81 21 88 0z m82 -87
c0 -87 -3 -105 -15 -105 -12 0 -15 18 -15 105 0 87 3 105 15 105 12 0 15 -18
15 -105z m70 0 c0 -87 -3 -105 -15 -105 -12 0 -15 18 -15 105 0 87 3 105 15
105 12 0 15 -18 15 -105z m191 76 c36 -37 41 -104 9 -144 -11 -14 -20 -28 -20
-31 0 -3 9 -6 20 -6 11 0 20 -4 20 -10 0 -14 -19 -13 -87 5 -87 22 -119 73
-92 149 24 70 98 88 150 37z m399 19 c0 -5 -18 -10 -40 -10 -39 0 -40 -1 -40
-35 0 -34 1 -35 40 -35 22 0 40 -4 40 -10 0 -5 -18 -10 -40 -10 l-40 0 0 -40
0 -40 45 0 c25 0 45 -4 45 -10 0 -6 -27 -10 -60 -10 l-60 0 0 105 0 105 55 0
c30 0 55 -4 55 -10z m80 -20 c21 -52 35 -54 55 -10 12 26 25 40 36 40 17 0 15
-6 -13 -51 -23 -38 -29 -56 -22 -68 6 -9 20 -33 33 -53 23 -38 23 -38 2 -38
-12 0 -21 3 -21 8 0 4 -9 22 -21 41 l-21 34 -24 -41 c-14 -23 -32 -42 -40 -42
-13 0 -11 7 7 38 13 20 27 44 33 53 7 12 1 30 -22 68 -28 45 -30 51 -13 51 11
0 23 -12 31 -30z m270 15 c-3 -5 -22 -10 -44 -10 -47 -1 -76 -32 -76 -80 0
-50 29 -79 81 -80 59 -1 56 -19 -4 -23 -41 -3 -51 1 -77 27 -48 48 -37 134 21
167 27 15 107 15 99 -1z m70 -80 l0 -95 45 0 c25 0 45 -4 45 -10 0 -6 -27 -10
-60 -10 l-60 0 0 105 c0 87 3 105 15 105 12 0 15 -17 15 -95z m130 16 c0 -81
12 -111 45 -111 33 0 45 30 45 111 0 64 3 79 15 79 12 0 15 -16 15 -80 0 -73
-3 -83 -25 -105 -33 -34 -77 -33 -104 1 -17 22 -21 41 -21 105 0 64 3 79 15
79 12 0 15 -15 15 -79z m268 61 c3 -9 -3 -11 -22 -6 -28 7 -56 -9 -56 -32 0
-7 17 -22 39 -33 57 -30 69 -78 27 -106 -28 -19 -87 -16 -94 4 -3 10 3 11 27
6 67 -14 84 43 22 74 -55 28 -65 57 -30 92 22 22 79 23 87 1z m82 -87 c0 -87
-3 -105 -15 -105 -12 0 -15 18 -15 105 0 87 3 105 15 105 12 0 15 -18 15 -105z
m55 93 c2 -7 14 -47 26 -88 l22 -75 30 88 c19 58 34 87 44 87 8 0 12 -6 10
-12 -3 -7 -20 -55 -37 -105 -42 -124 -55 -124 -94 0 -16 50 -31 98 -33 105 -3
6 3 12 11 12 9 0 19 -6 21 -12z m275 2 c0 -5 -20 -10 -45 -10 -45 0 -45 0 -45
-35 0 -34 1 -35 40 -35 22 0 40 -4 40 -10 0 -5 -18 -10 -40 -10 l-40 0 0 -40
0 -40 45 0 c25 0 45 -4 45 -10 0 -6 -27 -10 -60 -10 l-60 0 0 105 0 105 60 0
c33 0 60 -4 60 -10z m130 -95 c0 -87 -3 -105 -15 -105 -12 0 -15 18 -15 105 0
87 3 105 15 105 12 0 15 -18 15 -105z m124 25 c27 -44 49 -80 50 -80 1 0 0 36
-2 80 -4 68 -2 80 12 80 14 0 16 -15 16 -105 0 -132 -11 -135 -77 -25 l-48 81
-3 -81 c-2 -62 -6 -80 -17 -80 -12 0 -15 20 -15 105 0 94 2 105 18 105 12 0
35 -28 66 -80z m267 54 c28 -29 35 -84 15 -126 -20 -42 -51 -58 -111 -58 l-45
0 0 106 0 106 60 -4 c43 -3 67 -10 81 -24z m89 -25 l24 -51 25 51 c16 33 31
51 43 51 15 0 12 -9 -17 -57 -27 -45 -35 -69 -35 -105 0 -36 -4 -48 -15 -48
-11 0 -15 11 -15 43 0 30 -10 61 -30 98 -34 61 -35 69 -17 69 8 0 24 -23 37
-51z m297 35 c2 -7 -10 -11 -34 -10 -34 1 -38 -2 -38 -24 0 -15 8 -29 22 -36
63 -31 78 -69 42 -105 -22 -22 -89 -24 -96 -2 -3 8 6 10 29 7 62 -10 77 43 21
71 -58 29 -70 72 -30 100 24 17 78 17 84 -1z m173 6 c0 -5 -13 -10 -30 -10
l-30 0 0 -95 c0 -78 -3 -95 -15 -95 -12 0 -15 17 -15 95 l0 95 -30 0 c-16 0
-30 5 -30 10 0 6 32 10 75 10 43 0 75 -4 75 -10z m74 -37 l24 -48 23 48 c15
31 29 47 41 47 17 0 16 -4 -8 -47 -15 -27 -31 -52 -36 -57 -4 -6 -8 -32 -8
-58 0 -36 -4 -48 -15 -48 -11 0 -15 12 -15 48 0 33 -9 63 -30 101 -35 63 -34
61 -15 61 8 0 25 -21 39 -47z m156 -48 l0 -95 45 0 c25 0 45 -4 45 -10 0 -6
-27 -10 -60 -10 l-60 0 0 105 c0 87 3 105 15 105 12 0 15 -17 15 -95z m230 85
c0 -5 -20 -10 -45 -10 -45 0 -45 0 -45 -35 0 -34 1 -35 40 -35 22 0 40 -4 40
-10 0 -5 -18 -10 -40 -10 l-40 0 0 -40 0 -40 45 0 c25 0 45 -4 45 -10 0 -6
-27 -10 -60 -10 l-60 0 0 105 0 105 60 0 c33 0 60 -4 60 -10z m-2970 -120 c0
-5 -18 -10 -40 -10 -22 0 -40 5 -40 10 0 6 18 10 40 10 22 0 40 -4 40 -10z
m3096 -51 c10 -17 -13 -36 -27 -22 -12 12 -4 33 11 33 5 0 12 -5 16 -11z
m-5464 -206 c22 -19 23 -46 3 -66 -12 -13 -12 -17 5 -32 45 -41 8 -95 -65 -95
l-45 0 0 105 0 105 42 0 c24 0 49 -7 60 -17z m204 2 c31 -21 47 -68 39 -111
-15 -83 -99 -112 -156 -55 -63 63 -22 181 63 181 18 0 43 -7 54 -15z m184 -5
c24 -24 25 -47 5 -70 -14 -15 -14 -21 0 -53 19 -45 19 -67 1 -67 -7 0 -16 14
-20 32 -8 39 -23 58 -47 58 -16 0 -19 -8 -19 -45 0 -33 -4 -45 -15 -45 -12 0
-15 18 -15 105 l0 105 45 0 c32 0 51 -6 65 -20z m134 -60 c27 -44 49 -80 50
-80 1 0 0 36 -2 80 -4 68 -2 80 12 80 14 0 16 -15 16 -105 0 -132 -11 -135
-77 -25 l-48 81 -3 -81 c-2 -62 -6 -80 -17 -80 -12 0 -15 20 -15 105 0 94 2
105 18 105 12 0 35 -28 66 -80z m216 -25 c0 -87 -3 -105 -15 -105 -12 0 -15
18 -15 105 0 87 3 105 15 105 12 0 15 -18 15 -105z m124 25 c27 -44 49 -80 50
-80 1 0 0 36 -2 80 -4 68 -2 80 12 80 14 0 16 -15 16 -105 0 -132 -11 -135
-77 -25 l-48 81 -3 -81 c-2 -62 -6 -80 -17 -80 -12 0 -15 20 -15 105 0 94 2
105 18 105 12 0 35 -28 66 -80z m306 70 c0 -5 -13 -10 -30 -10 l-30 0 0 -95
c0 -78 -3 -95 -15 -95 -12 0 -15 17 -15 95 l0 95 -30 0 c-16 0 -30 5 -30 10 0
6 32 10 75 10 43 0 75 -4 75 -10z m50 -35 l0 -45 50 0 50 0 0 45 c0 33 4 45
15 45 12 0 15 -18 15 -105 0 -87 -3 -105 -15 -105 -11 0 -15 12 -15 50 l0 50
-50 0 -50 0 0 -50 c0 -38 -4 -50 -15 -50 -12 0 -15 18 -15 105 0 87 3 105 15
105 11 0 15 -12 15 -45z m291 -43 c16 -46 31 -92 34 -103 4 -13 2 -19 -9 -19
-8 0 -20 16 -26 36 -11 33 -15 35 -48 32 -31 -3 -38 -7 -46 -35 -5 -18 -15
-33 -22 -33 -8 0 -14 1 -14 3 0 3 55 169 65 195 3 8 12 12 22 10 11 -2 26 -31
44 -86z m99 -17 c0 -87 -3 -105 -15 -105 -12 0 -15 18 -15 105 0 87 3 105 15
105 12 0 15 -18 15 -105z m70 10 l0 -95 45 0 c25 0 45 -4 45 -10 0 -6 -27 -10
-60 -10 l-60 0 0 105 c0 87 3 105 15 105 12 0 15 -17 15 -95z m234 2 c16 -50
31 -98 33 -104 3 -7 -2 -13 -10 -13 -8 0 -18 15 -23 33 -8 28 -15 32 -46 35
-33 3 -37 1 -48 -32 -6 -20 -18 -36 -26 -36 -8 0 -14 1 -14 3 0 3 55 168 65
195 2 6 12 12 22 12 14 0 25 -22 47 -93z m158 9 l48 -79 0 81 c0 66 3 82 15
82 12 0 15 -18 15 -105 0 -136 -14 -140 -85 -21 l-50 83 4 -84 c3 -71 1 -83
-13 -83 -14 0 -16 15 -16 106 0 94 2 105 17 102 9 -2 39 -39 65 -82z m261 56
c17 -17 22 -34 22 -73 0 -45 -4 -54 -33 -80 -26 -24 -41 -29 -82 -29 l-50 0 0
106 0 106 60 -4 c45 -3 66 -10 83 -26z m153 -153 c10 -17 -13 -36 -27 -22 -12
12 -4 33 11 33 5 0 12 -5 16 -11z m-2488 -207 c3 -9 -3 -11 -22 -6 -28 7 -56
-9 -56 -32 0 -7 17 -22 39 -33 57 -30 69 -78 27 -106 -28 -19 -87 -16 -94 4
-3 10 3 11 27 6 68 -15 84 43 21 75 -51 26 -64 65 -30 92 26 21 81 21 88 0z
m82 -87 c0 -87 -3 -105 -15 -105 -12 0 -15 18 -15 105 0 87 3 105 15 105 12 0
15 -18 15 -105z m124 25 c27 -44 49 -80 50 -80 1 0 0 36 -2 80 -4 68 -2 80 12
80 14 0 16 -15 16 -105 0 -132 -11 -135 -77 -25 l-48 81 -3 -81 c-2 -62 -6
-80 -17 -80 -12 0 -15 20 -15 105 0 94 2 105 18 105 12 0 35 -28 66 -80z m266
65 c-3 -5 -22 -10 -44 -10 -47 -1 -76 -32 -76 -80 0 -50 29 -79 81 -80 59 -1
56 -19 -4 -23 -41 -3 -51 1 -77 27 -48 48 -37 134 21 167 27 15 107 15 99 -1z
m150 5 c0 -5 -20 -10 -45 -10 -45 0 -45 0 -45 -35 0 -34 1 -35 40 -35 22 0 40
-4 40 -10 0 -5 -18 -10 -40 -10 l-40 0 0 -40 0 -40 45 0 c25 0 45 -4 45 -10 0
-6 -27 -10 -60 -10 l-60 0 0 105 0 105 60 0 c33 0 60 -4 60 -10z m206 -25 c21
-32 13 -60 -31 -113 l-37 -42 41 0 c23 0 41 -4 41 -10 0 -6 -28 -10 -65 -10
-36 0 -65 4 -65 9 0 5 12 20 28 33 40 34 72 78 72 99 0 25 -35 43 -59 30 -23
-13 -35 -3 -20 16 20 23 76 16 95 -12z m153 -1 c43 -55 15 -174 -40 -174 -34
0 -57 18 -69 56 -33 99 52 191 109 118z m141 -74 c0 -82 -3 -100 -15 -100 -12
0 -15 16 -15 86 0 81 -1 85 -20 79 -11 -4 -20 -2 -20 4 0 13 30 30 53 31 15 0
17 -11 17 -100z m170 80 c33 -33 24 -65 -38 -132 l-26 -28 42 0 c23 0 42 -4
42 -10 0 -6 -28 -10 -65 -10 -36 0 -65 4 -65 9 0 5 12 20 28 33 40 34 72 78
72 99 0 25 -35 43 -59 30 -23 -13 -35 -3 -20 16 17 19 66 16 89 -7z m156 -151
c10 -17 -13 -36 -27 -22 -12 12 -4 33 11 33 5 0 12 -5 16 -11z"/>
<path d="M5965 7774 c-45 -13 -215 -42 -337 -59 l-47 -6 55 -107 c30 -59 75
-156 100 -217 l45 -110 -6 90 c-3 50 -11 118 -18 153 -11 49 -11 62 -1 62 27
0 84 -221 84 -329 l0 -73 33 6 c17 4 88 16 157 26 69 11 139 22 156 25 l31 5
-83 263 c-46 144 -84 268 -84 275 0 15 -21 14 -85 -4z"/>
<path d="M6175 7141 c-22 -10 -116 -44 -210 -76 -93 -32 -172 -60 -174 -62 -5
-3 89 -285 98 -295 6 -7 235 -50 236 -45 0 1 39 79 86 172 l86 170 -25 78
c-29 85 -32 87 -97 58z"/>
<path d="M6307 6934 c-18 -62 -67 -297 -63 -301 6 -6 200 -72 203 -69 2 1 -28
89 -66 196 -44 123 -71 186 -74 174z"/>
<path d="M4460 6893 c-70 -21 -114 -26 -247 -30 l-163 -5 40 -48 c84 -100 150
-228 205 -395 l33 -99 49 -17 c61 -21 158 -70 202 -103 l34 -25 33 29 c18 16
53 40 78 55 41 24 44 28 36 53 -5 15 -43 137 -85 272 -106 342 -105 340 -118
339 -7 -1 -50 -13 -97 -26z"/>
<path d="M3386 6760 c-14 -17 -28 -47 -32 -68 -7 -36 22 -822 31 -830 10 -10
77 44 162 132 140 143 257 225 398 281 39 15 72 29 74 31 6 5 -159 191 -236
265 -99 97 -179 158 -248 190 -79 38 -116 38 -149 -1z"/>
<path d="M5961 6492 c16 -47 31 -87 34 -90 3 -3 19 25 36 63 16 37 29 68 27
70 -2 1 -31 11 -65 23 l-61 20 29 -86z"/>
<path d="M6873 6027 c-94 -29 -174 -55 -177 -58 -4 -3 68 -158 160 -345 171
-350 209 -448 220 -575 l7 -68 31 6 c108 18 331 65 335 69 7 6 -21 81 -128
356 -45 113 -119 309 -165 435 -49 131 -90 229 -98 230 -7 1 -90 -22 -185 -50z"/>
<path d="M5937 5924 c-54 -50 -91 -194 -91 -354 -1 -188 47 -267 210 -346 143
-70 144 -69 73 137 -33 94 -82 264 -110 377 -28 114 -51 208 -53 209 -1 1 -14
-9 -29 -23z"/>
<path d="M7991 6164 c-12 -15 -21 -38 -21 -53 -1 -95 25 -521 32 -521 4 0 41
30 80 67 40 36 95 83 123 104 49 36 167 100 213 113 12 4 22 11 22 15 0 13
-154 156 -222 207 -71 52 -152 94 -185 94 -12 0 -31 -12 -42 -26z"/>
<path d="M8533 5709 c-89 -15 -211 -79 -308 -164 l-30 -26 57 7 c67 7 174 -9
278 -43 72 -23 346 -151 339 -157 -2 -2 -69 18 -149 44 -318 105 -512 104
-561 -4 -35 -77 -22 -157 40 -253 83 -129 168 -184 296 -191 286 -16 537 199
496 425 -21 115 -103 239 -198 302 -56 37 -73 39 -73 7 0 -28 -19 -86 -34
-105 -9 -11 -13 -2 -19 40 -4 30 -9 67 -10 83 -1 16 -8 31 -15 34 -11 3 -12 0
-2 -19 12 -23 11 -22 -17 4 -16 15 -31 26 -34 26 -2 -1 -27 -5 -56 -10z"/>
<path d="M4360 4360 c0 -39 2 -41 26 -38 15 2 32 11 38 21 15 24 -3 51 -38 55
-24 3 -26 1 -26 -38z"/>
<path d="M4541 4374 c-12 -15 -21 -41 -21 -59 0 -41 34 -85 65 -85 59 0 86
100 40 145 -31 32 -58 32 -84 -1z"/>
<path d="M5581 4374 c-12 -15 -21 -41 -21 -59 0 -41 34 -85 65 -85 31 0 65 44
65 85 0 41 -34 85 -65 85 -14 0 -32 -11 -44 -26z"/>
<path d="M7730 4315 l0 -88 37 6 c47 8 63 25 70 73 7 51 -18 82 -69 91 l-38 6
0 -88z"/>
<path d="M3450 3995 c0 -27 4 -35 18 -35 37 0 58 52 26 64 -34 13 -44 7 -44
-29z"/>
<path d="M3450 3900 c0 -43 13 -50 51 -30 38 21 13 70 -35 70 -12 0 -16 -10
-16 -40z"/>
<path d="M3631 4004 c-12 -15 -21 -41 -21 -59 0 -18 9 -44 21 -59 42 -53 104
-19 104 59 0 78 -62 112 -104 59z"/>
<path d="M3830 3990 c0 -43 13 -50 51 -30 37 20 17 70 -28 70 -20 0 -23 -5
-23 -40z"/>
<path d="M4971 3985 c-6 -16 -14 -36 -16 -42 -3 -9 6 -13 25 -13 33 0 34 1 15
50 l-13 35 -11 -30z"/>
<path d="M5372 3983 c-16 -53 -16 -53 13 -53 28 0 29 9 11 59 l-12 34 -12 -40z"/>
<path d="M5740 3944 l0 -87 37 6 c47 8 63 25 70 75 5 34 1 44 -20 66 -17 17
-37 26 -57 26 l-30 0 0 -86z"/>
<path d="M4426 3628 c-31 -43 -10 -138 29 -138 21 0 35 33 35 80 0 74 -33 103
-64 58z"/>
</g>
</svg>
